<svg xmlns="http://www.w3.org/2000/svg" height="512" viewBox="-106 0 512 512" width="512"><path d="M240 512V319.559l60-90.02V90h-30V45c0-24.813-20.188-45-45-45-11.516 0-22.031 4.355-30 11.496C187.031 4.356 176.516 0 165 0c-20.723 0-38.21 14.086-43.414 33.18A44.78 44.78 0 0 0 105 30c-20.723 0-38.21 14.086-43.414 33.18A44.78 44.78 0 0 0 45 60C20.187 60 0 80.187 0 105v153.54l30 60V512zm30-291.54l-60 87.052V482h-60v-92h-30v92H60V311.46l-30-60v-74.038A44.814 44.814 0 0 0 45 180c11.516 0 22.031-4.355 30-11.496C82.969 175.648 93.484 180 105 180s22.031-4.355 30-11.496c7.969 7.144 18.484 11.484 30 11.484h13.281C160.746 200.27 150 227.387 150 255h30c0-30.938 18.996-62.02 45.164-73.906l-.496-1.094H225v-30h-60c-8.27 0-15-6.73-15-15v-15h120zM225 30c8.27 0 15 6.73 15 15v45h-30V45c0-8.27 6.73-15 15-15zm-75 15c0-8.27 6.73-15 15-15s15 6.73 15 15v45h-30V45zM90 75c0-8.27 6.73-15 15-15s15 6.73 15 15v60c0 8.27-6.73 15-15 15s-15-6.73-15-15V75zM45 90c8.27 0 15 6.73 15 15v30c0 8.27-6.73 15-15 15s-15-6.73-15-15v-30c0-8.27 6.73-15 15-15zm0 0" fill="#FFF"/></svg>