<svg xmlns="http://www.w3.org/2000/svg" height="512" viewBox="-31 0 479 480" width="512"><path d="M296.5 312h-176a8 8 0 0 0-8 8v104a8 8 0 0 0 8 8h176a8 8 0 0 0 8-8V320a8 8 0 0 0-8-8zm-11.648 16c-10.192 27.938-41.223 48-76.352 48s-66.16-20.063-76.352-48zM128.5 416v-61.602a99.582 99.582 0 0 0 80 37.602 99.582 99.582 0 0 0 80-37.602V416zm0 0M272.5 104h-168a8 8 0 0 0 0 16h168a8 8 0 0 0 0-16zm0 0M312.5 104h-8a8 8 0 0 0 0 16h8a8 8 0 0 0 0-16zm0 0M208.5 136c-13.254 0-24 10.746-24 24s10.746 24 24 24 24-10.746 24-24-10.746-24-24-24zm0 32a8 8 0 1 1 0-16 8 8 0 0 1 0 16zm0 0" fill="#FFF"/><path d="M168.5 8a8 8 0 0 0-8-8h-64a8 8 0 0 0-8 8v64h-16a8 8 0 0 0-8 8v192h-24c-22.082.027-39.973 17.918-40 40v88c.027 22.082 17.918 39.973 40 40h24c.027 22.082 17.918 39.973 40 40h208c22.082-.027 39.973-17.918 40-40h24c22.082-.027 39.973-17.918 40-40v-88c-.027-22.082-17.918-39.973-40-40h-24V80a8 8 0 0 0-8-8h-16V8a8 8 0 0 0-8-8h-64a8 8 0 0 0-8 8v64h-80zm-64 8h48v16h-48zm-56 408v-56a8 8 0 0 0-16 0v54.527A24.003 24.003 0 0 1 16.5 400v-88a24.003 24.003 0 0 1 16-22.527V336a8 8 0 0 0 16 0v-48h16v136zm288 16c0 13.254-10.746 24-24 24h-208c-13.254 0-24-10.746-24-24V195.312l32 11.29V280a8 8 0 0 0 8 8h48a8 8 0 0 0 8-8v-50.809l29.336 10.352c1.723.61 3.605.61 5.328 0l29.336-10.352V280a8 8 0 0 0 8 8h48a8 8 0 0 0 8-8v-73.398l32-11.29zm-208-168v-80h32v80zm128 0v-80h32v80zm112 16v24a8 8 0 0 0 16 0v-22.527a24.003 24.003 0 0 1 16 22.527v88a24.003 24.003 0 0 1-16 22.527V344a8 8 0 0 0-16 0v80h-16V288zm-32-109.664l-32 11.266V184a8 8 0 0 0-8-8h-48a8 8 0 0 0-8 8v28.215l-32 11.297-32-11.297V184a8 8 0 0 0-8-8h-48a8 8 0 0 0-8 8v5.602l-32-11.29V88h256zM264.5 16h48v16h-48zm0 32h48v24h-48zm-160 24V48h48v24zm0 0" fill="#FFF"/><path d="M205.46 359.36a7.55 7.55 0 0 0 6.08 0 9.309 9.309 0 0 0 2.64-1.68 7.935 7.935 0 0 0 2.32-5.68 8.228 8.228 0 0 0-2.32-5.68 8.262 8.262 0 0 0-2.64-1.68 7.574 7.574 0 0 0-4.642-.48c-.5.086-.984.25-1.437.48-.512.176-1 .419-1.45.72l-1.19.96A8.186 8.186 0 0 0 200.5 352a7.929 7.929 0 0 0 2.32 5.68 8.262 8.262 0 0 0 2.64 1.68zm0 0" fill="#FFF"/></svg>