<svg xmlns="http://www.w3.org/2000/svg" width="512" height="512"><path d="M503.613 362.535l-57.784-28.392c-15.316-7.679-24.831-23.089-24.831-40.227v-76.671c0-16.217-3.833-32.455-11.066-46.92L339.664 28.792C330.785 11.033 312.935.001 293.081.001c-14.5 0-27.63 5.962-37.082 15.557C246.547 5.963 233.417.001 218.917.001c-19.854 0-37.704 11.032-46.603 28.828l-70.229 141.458C94.833 184.791 91 201.029 91 217.245v76.671c0 17.138-9.515 32.548-24.832 40.227L8.387 362.536c-7.488 3.679-10.533 12.768-6.779 20.215l61 120.999c3.748 7.435 12.815 10.365 20.184 6.623l130.166-66.083a104.736 104.736 0 0 0 43.043-39.86c10.55 17.568 25.603 31.141 42.961 39.818l130.248 66.124c7.383 3.749 16.44.803 20.185-6.623l61-120.999c3.753-7.45.701-16.536-6.782-20.215zM241 350.375c0 28.591-15.886 54.296-41.541 67.123L82.624 476.813l-47.406-94.035 44.231-21.733.093-.046c25.573-12.786 41.459-38.49 41.459-67.081v-76.671c0-11.583 2.738-23.181 7.937-33.579L199.167 42.21c3.765-7.53 11.333-12.207 19.751-12.207 12.176 0 22.082 9.906 22.082 22.082 0 14.949.547 18.283-2.332 24.039-15.47 30.94-28.448 59.507-43.341 101.618l-11.763 33.257C182.122 214.748 181 220.462 181 226v89.999c0 8.284 6.716 15 15 15 8.284 0 15-6.716 15-15V226c0-8.442 6.87-15 15-15 8.271 0 15 6.729 15 15v124.375zm-14.976-169.376c9.276-25.605 19.298-49.732 29.884-71.977 10.591 22.67 20.625 46.76 29.971 71.977-11.469.031-21.938 4.38-29.878 11.496-7.962-7.137-18.469-11.49-29.977-11.496zm203.352 295.814l-116.917-59.357C286.886 404.671 271 378.966 271 350.375V225.999c0-8.271 6.729-15 15-15 8.146 0 15 6.575 15 15v89.999c0 8.284 6.716 15 15 15s15-6.716 15-15v-89.999c0-10.183-2.606-15.117-11.41-40.011-13.912-39.337-29.476-76.3-46.259-109.866-2.869-5.739-2.331-8.944-2.331-24.04C271 39.906 280.906 30 293.082 30c8.418 0 15.986 4.677 19.731 12.169l70.268 141.535a75.378 75.378 0 0 1 7.918 33.541v76.671c0 28.592 15.886 54.296 41.459 67.081l.093.046 44.232 21.733-47.407 94.037z" fill="#FFF"/></svg>