<svg xmlns="http://www.w3.org/2000/svg" viewBox="0 0 479.4 479.4" width="512" height="512"><path d="M54.967 254.575L43.35 319.742c-1.133 6.517 1.417 13.033 6.8 16.717 2.833 2.267 6.517 3.117 9.917 3.117 2.833 0 5.667-.567 7.933-1.983l68-36.55c14.733 63.75 85.567 112.2 170.283 112.2 5.95 0 11.9-.283 17.85-.85l87.55 47.033c2.55 1.417 5.383 1.983 7.933 1.983 3.4 0 7.083-1.133 9.917-3.117 5.383-3.683 7.933-10.2 6.8-16.717l-11.617-65.167c34.85-25.783 54.683-61.483 54.683-99.733 0-63.467-55.817-118.717-133.733-133.167C338.3 73.525 263.783 17.992 173.117 17.992 77.633 17.992 0 79.192 0 154.558c.283 38.534 20.117 74.517 54.967 100.017zm390.716 22.1c0 29.75-17.567 58.083-48.45 77.633-5.667 3.683-8.783 10.483-7.65 17.283l7.367 41.367-61.2-32.867c-3.117-1.7-6.517-2.267-9.917-1.983-6.517.567-13.317 1.133-19.55 1.133-69.983 0-128.067-38.25-137.7-87.833h4.533c85.567 0 156.683-49.3 170.567-113.617 59.784 12.467 102 52.984 102 98.884zM173.4 52.275c76.783 0 139.117 45.9 139.117 102.567S250.183 257.408 173.4 257.408c-6.233 0-13.033-.283-19.55-1.133-3.4-.283-6.8.283-9.917 1.983l-61.2 32.867 7.367-41.367c1.133-6.8-1.7-13.6-7.65-17.283C51.567 212.925 34 184.592 34 154.842c.283-56.384 62.617-102.567 139.4-102.567z" fill="#FFF"/></svg>