<svg xmlns="http://www.w3.org/2000/svg" height="512" viewBox="0 0 480 480" width="512"><path d="M232 216h16v16h-16zm0 32h16v40h-16zm0 0" fill="#FFF"/><path d="M464 192l-29.848-.07a196.735 196.735 0 0 0-22.984-55.203l21.176-21.176c6.242-6.246 6.242-16.367 0-22.614l-45.274-45.28c-6.246-6.243-16.367-6.243-22.613 0L343.273 68.8A196.484 196.484 0 0 0 288 45.895V16c0-8.836-7.164-16-16-16h-64c-8.836 0-16 7.164-16 16l-.07 29.848a196.735 196.735 0 0 0-55.203 22.984l-21.192-21.176c-6.246-6.242-16.367-6.242-22.613 0L47.656 92.93c-6.242 6.246-6.242 16.367 0 22.613l21.145 21.184A196.484 196.484 0 0 0 45.895 192H16c-8.836 0-16 7.164-16 16v64c0 8.836 7.164 16 16 16l29.848.07a196.735 196.735 0 0 0 22.984 55.203l-21.176 21.192c-6.242 6.246-6.242 16.367 0 22.613l45.266 45.266c6.246 6.242 16.367 6.242 22.613 0l21.184-21.098A196.462 196.462 0 0 0 192 434.106V464c0 8.836 7.164 16 16 16h64c8.836 0 16-7.164 16-16l.07-29.848a196.735 196.735 0 0 0 55.203-22.984l21.176 21.176c6.246 6.242 16.367 6.242 22.614 0l45.265-45.266c6.242-6.246 6.242-16.367 0-22.613L411.23 343.28A196.453 196.453 0 0 0 434.105 288H464c8.836 0 16-7.164 16-16v-64c0-8.836-7.164-16-16-16zm0 80h-29.895a16 16 0 0 0-15.488 12.238A182.322 182.322 0 0 1 397.543 335a16.007 16.007 0 0 0 2.312 19.602l21.168 21.168-45.253 45.253-21.168-21.168a16.006 16.006 0 0 0-19.61-2.304 182.351 182.351 0 0 1-50.762 21.066A16 16 0 0 0 272 434.105V464h-64v-29.895a16 16 0 0 0-12.238-15.488A182.322 182.322 0 0 1 145 397.543a16.206 16.206 0 0 0-8.36-2.344 15.88 15.88 0 0 0-11.199 4.649l-21.168 21.168-45.296-45.246 21.168-21.168a16.006 16.006 0 0 0 2.304-19.61 182.351 182.351 0 0 1-21.066-50.762A16 16 0 0 0 45.895 272H16v-64h29.895a16 16 0 0 0 15.488-12.238A182.322 182.322 0 0 1 82.457 145a16.007 16.007 0 0 0-2.312-19.602L58.977 104.23l45.253-45.253 21.168 21.168a16.006 16.006 0 0 0 19.61 2.304 182.351 182.351 0 0 1 50.762-21.066A16 16 0 0 0 208 45.895V16h64v29.895a16 16 0 0 0 12.238 15.488A182.322 182.322 0 0 1 335 82.457a16.007 16.007 0 0 0 19.602-2.312l21.168-21.168 45.253 45.253-21.168 21.168a16.006 16.006 0 0 0-2.304 19.61 182.351 182.351 0 0 1 21.066 50.762A16 16 0 0 0 434.105 208H464zm0 0" fill="#FFF"/><path d="M316.504 127.543l-9.008 13.258A119.878 119.878 0 0 1 346.121 184H304a8 8 0 0 0-8 8v154.008a117.965 117.965 0 0 1-16 7.07V193.176l23.664-78.88a7.998 7.998 0 0 0-2.008-7.952l-56-56a8.004 8.004 0 0 0-11.312 0l-56 56a7.998 7.998 0 0 0-2.008 7.953L200 193.176v159.922a119.807 119.807 0 0 1-16-7.137V224a8.052 8.052 0 0 0-.566-2.969l-26.832-67.078a122.104 122.104 0 0 1 15.91-13.152l-9.024-13.207a135.87 135.87 0 0 0-27.488 200V328h.375c2.402 2.793 4.8 5.535 7.457 8.168A135.394 135.394 0 0 0 240.039 376c5.887 0 11.762-.375 17.602-1.113 55.988-7.301 101.644-48.438 114.718-103.371 13.07-54.93-9.156-112.223-55.855-143.965zm-174.902 44.023c1.023-1.468 1.957-3 3.054-4.421l3.528 8.855h-8.368zm-5.602 128A119.81 119.81 0 0 1 120.465 232H136zM123.816 216l9.598-24h21.172l9.598 24zM168 335.848a120.05 120.05 0 0 1-12.848-11c-1.129-1.121-2.082-2.399-3.152-3.528V232h16zm96 21.754c-2.762.55-5.535 1.07-8.36 1.421a122.032 122.032 0 0 1-39.64-1.52V200h48zM213.953 184l-20.914-69.719 38.45-38.449.456 46.398a16.002 16.002 0 0 0-7.382 18.028 15.993 15.993 0 0 0 15.5 11.797 15.995 15.995 0 0 0 15.406-11.918 16 16 0 0 0-7.524-17.969l-.465-47.398 39.48 39.488L266.048 184zm145.055 71.64A120 120 0 0 1 312 335.778V304h16v-16h-16v-16h16v-16h-16v-16h16v-16h-16v-24h41.078a121.313 121.313 0 0 1 5.93 55.64zM156.992 110.734l-8.64-13.468a159.52 159.52 0 0 0-14.75 10.687l10.109 12.39a144.316 144.316 0 0 1 13.281-9.609zm-38.984 11.786a160.253 160.253 0 0 0-37.727 67.375l15.438 4.21a144.124 144.124 0 0 1 33.945-60.625zm0 0" fill="#FFF"/></svg>