<svg xmlns="http://www.w3.org/2000/svg" height="512" viewBox="-8 0 458 458.815" width="512"><path d="M264.492 458.816a263.634 263.634 0 0 0 174.758-66.273 7.997 7.997 0 0 0 1.488-10.223 7.998 7.998 0 0 0-9.836-3.164c-82.882 34.098-177.312 24.633-251.777-25.238C104.66 304.043 59.961 220.332 59.941 130.707A267.356 267.356 0 0 1 80.066 28.32a7.998 7.998 0 0 0-13.386-8.347A263.634 263.634 0 0 0 .406 194.73c0 145.618 118.473 264.086 264.086 264.086zM50.523 69.348a286.537 286.537 0 0 0-6.582 61.359c0 157.164 127.407 284.574 284.57 284.574a286.822 286.822 0 0 0 61.364-6.582 247.443 247.443 0 0 1-125.383 34.117c-136.793 0-248.086-111.293-248.086-248.086A247.443 247.443 0 0 1 50.523 69.348zm0 0" fill="#FFF"/><path d="M181.277 257.293l-6.675 38.934a7.996 7.996 0 0 0 3.183 7.824 7.994 7.994 0 0 0 8.422.61l34.973-18.384 34.965 18.383a8.001 8.001 0 0 0 8.425-.61 8.001 8.001 0 0 0 3.18-7.823l-6.672-38.934 28.29-27.574a7.998 7.998 0 0 0-4.434-13.645l-39.094-5.68-17.485-35.425a8.001 8.001 0 0 0-7.171-4.461 8.003 8.003 0 0 0-7.176 4.46l-17.485 35.427-39.09 5.68A7.998 7.998 0 0 0 153 229.718zm21.7-31.672a8.008 8.008 0 0 0 6.027-4.375l12.176-24.66 12.168 24.66a8.001 8.001 0 0 0 6.023 4.375l27.215 3.953-19.691 19.196a8 8 0 0 0-2.301 7.082l4.648 27.101-24.34-12.8a7.992 7.992 0 0 0-7.445 0l-24.34 12.8 4.649-27.101a8.012 8.012 0 0 0-2.301-7.082l-19.692-19.196zm131.183-35.098l-3.64 21.215a8 8 0 1 0 11.61 8.434l19.05-10.016 19.05 10.016a8.001 8.001 0 0 0 8.426-.61 8.001 8.001 0 0 0 3.18-7.824l-3.637-21.215 15.414-15.023a8 8 0 1 0-4.434-13.645l-21.3-3.097-9.527-19.297A8.001 8.001 0 0 0 361.18 135a8.003 8.003 0 0 0-7.176 4.46l-9.524 19.298-21.3 3.097a7.997 7.997 0 0 0-4.434 13.645zm16.781-16.535a8.001 8.001 0 0 0 6.024-4.375l4.215-8.539 4.21 8.54a8.001 8.001 0 0 0 6.024 4.374l9.422 1.367-6.816 6.653a7.99 7.99 0 0 0-2.301 7.078l1.61 9.383-8.427-4.43a8.015 8.015 0 0 0-7.445 0l-8.426 4.43 1.606-9.383a7.998 7.998 0 0 0-2.297-7.078l-6.82-6.645zM180.16 55.523l-3.64 21.215a8 8 0 1 0 11.61 8.434l19.05-10.016 19.05 10.016a8.001 8.001 0 0 0 8.426-.61 8.001 8.001 0 0 0 3.18-7.824l-3.637-21.215L249.613 40.5a8 8 0 1 0-4.434-13.645l-21.3-3.097-9.527-19.297A8.001 8.001 0 0 0 207.18 0a8.003 8.003 0 0 0-7.176 4.46l-9.524 19.298-21.3 3.097a7.997 7.997 0 0 0-4.434 13.645zm16.781-16.535a8.001 8.001 0 0 0 6.024-4.375l4.215-8.539 4.21 8.54a8.001 8.001 0 0 0 6.024 4.374l9.422 1.367-6.816 6.653a7.99 7.99 0 0 0-2.301 7.078l1.61 9.383-8.427-4.43a8.015 8.015 0 0 0-7.445 0l-8.426 4.43 1.606-9.383a7.998 7.998 0 0 0-2.297-7.078l-6.82-6.645zm0 0" fill="#FFF"/></svg>