<svg version="1.0" xmlns="http://www.w3.org/2000/svg" viewBox="0 0 700 1280"><path d="M313.8 192.1c-12.1 1.8-23.7 10.5-29.4 22.2l-2.7 5.4-7.1.7c-8.9.8-11.8 2.7-22.2 14.2-4.3 4.8-10.3 11.1-13.1 13.9-5.8 5.6-6.4 7.7-3.8 13.9.9 2.1 1.4 5.9 1.3 9.3l-.3 5.8 5.5 1.7c3 .9 9.3 2.8 14 4.2 9.8 2.9 20.6 8.9 21.4 11.9.3 1.4 1 1.8 2.2 1.3 2.3-.9 9.6 6.7 11.1 11.7 1.5 4.9.4 5.5-11.8 5.8-7.9.2-10.2-.1-14.3-1.9-2.7-1.2-5.9-2.2-7.3-2.2-1.3 0-2.6-.7-2.9-1.5-.7-1.7-3.1-2-3.6-.4-.2.6-2.8 1.9-5.7 3-7.3 2.5-9.6 4.2-13.7 9.8-3.8 5.5-6.3 7-7.6 4.7-.5-.8-3.5-3.4-6.8-5.7-3.3-2.3-7-5.8-8.2-7.8-1.2-2-3.7-5.5-5.5-7.9-2.9-3.6-4-4.2-7.2-4.2-4 0-6.5 2-9.4 7.5-3.4 6.3-3 6.3-10.3.7-3.7-2.9-7.9-5.5-9.3-5.7-1.4-.3-6-1.6-10.1-3-9.9-3.3-19.8-4.2-22.5-2.1-2.7 2-1.1 4.5 4.1 6.3 15.1 5.1 18.7 6.7 16.8 7.4-1 .4-5 .8-8.8.8-6.9.1-18.1 2.4-20.3 4.3-1.9 1.6-1.6 4.6.7 5.8 1.4.7 3.9.7 8.6 0 3.7-.6 6.9-.9 7.1-.6.3.2-2.2 1.2-5.4 2.2-3.2 1-6.4 2.2-7 2.7-1.8 1.3-1.6 4.4.2 5.1.8.3 1.5 1.4 1.5 2.5 0 3.3 6.3 5.7 16.5 6.5 7.1.6 10.4 1.4 16.2 4.1 5 2.3 7.3 3.9 7.3 5.1 0 1 2.2 4.3 4.8 7.3 2.7 3.1 8 10.1 11.9 15.6 7.6 10.8 15 18.4 25.3 25.9 10 7.4 15.6 9.9 22 9.9h5.5l3.9 8c2.7 5.8 3.6 8.9 3.3 11.1-.3 1.7.3 6.2 1.3 10.1 2.3 8.9 4.5 29.1 3.6 33.6-.4 1.9-.8 6.5-.9 10.4-.1 4.8-.9 8.4-2.4 11.5-1.1 2.5-2.3 6.1-2.6 8-.3 1.9-2.1 8-4.1 13.5-7.5 21.4-16.7 52.4-19 64.4-3 15-5.1 33.4-6.6 56.6-2.2 33.1-4.6 40.6-21.8 69.4-12.6 21-13.8 24.3-10.4 27.4 3.2 2.9 6.7 2.1 10.5-2.3 3.3-3.9 3.6-4 9.5-4 3.4 0 6.2.4 6.2 1 0 .5-3 7.6-6.6 15.7-17.2 38.3-16.5 35.5-9.7 42.5l4.6 4.7-5.8 7.7c-3.3 4.2-14.7 16.7-25.5 27.6-10.7 11-19.9 20.6-20.3 21.4-1.7 3 1.2 5.7 15.1 14.1 1.8 1.1 2 1.7 1.2 3.3-1.8 3.3-2.9 11.4-3.9 28.3-1.9 30.1-4.5 33.4-28.6 35.7-14.5 1.4-17.5 2.7-22.3 10.4-3.7 5.8-4.2 6.3-12.8 9.9-15.9 6.6-19.8 11.4-19.7 24.2.1 14 6.9 31 14.7 36.7 3.9 2.8 4.5 3 11.6 2.6 9.7-.6 24.9-5.7 43.5-14.8 32.7-15.8 53.5-34.3 72.9-65 12.5-19.6 21.5-39.6 26.7-59 1.2-4.7 2.3-8.6 2.4-8.7.2-.3 15.7-3.3 17.1-3.3 1.5 0-3.5 20.2-7.5 29.9-4.4 10.9-8.8 17.7-16.8 25.8-4 4.1-7.8 8.4-8.4 9.5-1.4 2.6-.5 7.2 2.2 11 2.1 2.9 2.1 3 .3 4.9-1.1 1-6 4.9-10.9 8.7-9.1 6.9-10.2 8.4-9 12.9.7 2.9 37.2 40.4 45.5 46.7 3 2.4 8.7 5.5 12.5 7.1 6.6 2.6 7.9 2.8 22 2.8 8.3 0 20.2-.6 26.5-1.4 8.4-1 20.5-1.3 44.5-1.1 20.2.1 36.5-.2 42-.9 23.8-3 61.3-20.4 98.3-45.6l12.3-8.4 10.7 9.4c26.9 23.7 34.7 27 47.5 20.5 12-6 36.3-31.1 59.6-61.5 6.9-9 11.3-13 21-18.8 6.6-3.9 17.5-6.7 22.5-5.8 1.8.4 2.9-.2 4.1-2.1 2-3.1 1.4-5.6-1.5-5.6-1.1 0-2-.3-2-.6s1.6-6.5 3.6-13.8c8-29.5 8-45.7-.1-49.4-3.7-1.7-11.3-1.5-25 .8-14.6 2.4-27.2 2.6-34.6.4-9.8-2.9-16.6-8.1-36.9-27.9-10.7-10.5-21.7-20.6-24.3-22.4-10.4-7.1-20.4-9.4-30.5-7.1-5.3 1.3-6.9.4-21.6-11.4-11.3-9.1-11.4-7.8 1.4-14.8 8.6-4.7 11-6.5 11-8.6 0-.8-7.1-8.6-15.7-17.4l-15.8-15.9 4.2-3.7c5.9-5.1 6.9-8.6 4.8-15.9-3.5-12-12.7-27.3-27.7-46-9.6-11.9-21.9-29.5-21.2-30.2.2-.2 3 .6 6.3 1.8 6.6 2.4 15.6 2.1 20-.6 2.2-1.4 2.3-2 1.8-7.5-.3-3.3-.1-7.2.4-8.7.8-2.2.3-4.1-2.6-10.4-1.9-4.2-3.8-8.9-4.1-10.5-.5-2.5-.2-3 2.6-4.2 2.2-.9 3-1.9 2.9-3.4-.1-1.2.4-3.3 1.1-4.8 1.1-2.4.7-3.9-5.7-18.5-4.6-10.4-8-19.6-9.7-27-3.7-15.5-10.3-34.3-17.6-50.3-7.2-15.7-8.7-19.7-17.1-46.5-3.4-11-7.3-22.4-8.7-25.4-2.6-5.9-2.7-8-.6-47.8.6-11.9.6-12.5-2.1-18.8-5.2-12.2-17.7-19.5-33.5-19.5-5.5 0-8 .6-13.2 3-5.5 2.6-6.4 2.8-7.4 1.5-.8-1.1-3-1.5-7.6-1.5-6.6 0-10.7-1.7-9.4-3.9.4-.6 1.1-.9 1.6-.6.4.3 1.4-.2 2.1-1.1 1.2-1.4 1.4-1.4 1.9.2.5 1.4 1.2.5 2.8-3.6 3.9-10.4 4.3-11.3 4.7-10.8.2.2-.2 2.6-1 5.3-1.9 6.1-.9 5.2 3-2.8 3-6 3.2-6.2 14.3-12.2 6.2-3.3 12.2-7 13.3-8.2 2-1.9 2-2.4.9-7.5-1.2-5.2-1.1-5.7 2-12.9l3.3-7.4-2.6-4.5c-1.5-2.5-6.1-11.2-10.2-19.3-4.2-8.1-8.2-15-9-15.3-.8-.3-2.4-2.1-3.5-3.9-2.8-4.5-4.4-4.9-8-1.9l-3 2.6-2.5-3c-3.5-4.1-10.4-8-15.6-8.8-2.4-.4-5.1-1.2-5.9-1.9-4.1-3.4-12.2-4.2-24.2-2.4zM153 331c0 .6-2.3.9-5.2.9l-5.3-.2 4-.7c6-1.1 6.5-1.1 6.5 0zm235.7 88.7c.6 1.6 4.2 10.7 8.2 20.3 5 12.3 8.7 23.7 12.5 38.5 5.7 21.9 7.4 27 14.8 44.5 2.5 5.8 5.1 12.9 5.8 15.9 1.5 6.5.8 18.7-1.3 22.7l-1.5 2.9-7.5-15.5c-4.1-8.5-10.3-19.8-13.8-25-6.9-10.4-23.5-27.8-28.7-30.1-1.7-.7-3.2-2-3.2-2.7 0-.7-1.2-3.3-2.6-5.8-1.8-3-2.4-5.2-2-6.9.3-1.3.1-3.5-.6-5-.9-1.9-.9-4 0-8.9 2.8-15 4.5-20.8 7-23.8 1.6-1.8 2.7-4.5 2.8-6.3 0-1.8 1.4-5.5 3.1-8.2 1.7-2.7 3.4-5.9 3.7-7.1 1-2.9 1.9-2.8 3.3.5zm62.1 168.7c.3 4-.1 6.4-1.2 8.1-2 3-2 4.9-.1 6.5.8.7 1.5 2.6 1.5 4.3 0 4.2-.8 3.2-8.5-11.5l-6.6-12.7 6.3-.3c3.5-.2 6.7-.3 7.2-.3.6.1 1.2 2.7 1.4 5.9zm12 9.5c.2 3.8-.2 6-1.5 7.9l-1.7 2.7-.8-4c-.8-4.6.9-12.8 2.6-12.2.6.2 1.2 2.7 1.4 5.6z"/></svg>