<svg version="1.0" xmlns="http://www.w3.org/2000/svg" viewBox="0 0 8280 12800"><path d="M4342 296c-46 13-102 34-125 45-108 54-194 191-207 329-8 81-41 202-72 263-81 159-94 292-54 543 15 93 34 201 42 241s14 89 15 110 4 49 8 62c6 22 7 22 20 7 16-19 64-46 81-46 8 0 8 6 0 20-7 14-7 20 0 20 5 0 10 4 10 10 0 5-7 10-15 10s-15 8-14 17c0 11 3 13 6 5 7-19 19-14 20 9 1 13-5 23-18 26-10 3-19 9-19 13s-11 5-23 3c-13-3-30 1-38 9s-31 24-52 37c-33 20-46 23-97 17l-58-7-44 52c-38 46-62 61-225 140-275 133-357 203-378 324-4 22-18 52-32 66-13 15-59 91-102 170s-109 200-148 269-94 170-123 225-61 111-70 125c-33 49-101 270-99 320 2 43-4 68-31 135-5 11-16 42-26 69-19 52-24 58-73 96-113 86-158 131-185 184-24 48-28 64-22 104 3 27 3 52-1 56-4 3-8 14-9 22-1 9-6 23-10 32s-9 33-10 53c-2 20-10 62-19 95-17 66-18 74-7 73 18-3 24 2 14 13-15 20-27 82-13 74 6-4 11-1 11 7s-7 18-16 21c-18 7-58 92-49 106 12 20-19 135-43 158-13 12-21 29-18 37 2 7-6 30-20 50-19 28-22 40-14 56 8 15 7 19-4 19-7 0-17 11-20 25-4 14-16 35-27 46-12 12-19 29-16 40 3 10 1 19-3 19-8 0-22 32-25 55-1 11-11 36-28 75-6 14-11 28-11 32-1 4-6 12-13 19-6 6-9 18-6 26s-3 20-12 27c-11 8-16 20-12 29 3 8 0 18-7 20-13 5-28 88-29 154 0 18-3 33-7 33-3 0-6 21-6 47-1 52-50 304-67 340-5 12-7 38-4 59 9 53-11 466-23 478-13 13-13 49 0 62 10 10-73 1444-131 2274-12 162-23 340-25 395-7 192-35 469-50 492-17 26-18 55-3 70 7 7 7 46 0 129-5 65-13 184-17 264-4 96-11 152-20 167-17 27-18 89-3 99 8 5 10 44 5 133-3 69-7 222-8 338-1 117-6 213-10 213-11 0-10 77 0 84 5 3 12 90 15 194 4 104 17 274 29 378s21 209 20 233c-2 28 5 60 19 88 13 27 23 69 25 108 3 79 14 99 65 126 43 21 185 49 257 49 40 0 47-5 112-71 39-39 70-75 70-79 0-3 28-3 63 2 71 10 415-7 517-25 39-8 89-9 125-5 90 11 203-16 230-54 13-19 34-23 212-39 218-19 277-33 279-64 1-11 2-59 3-107l1-86 35-12c57-19 88-80 41-80-14 0-28-4-31-10s1-7 9-4 29-4 45-15c16-12 34-21 40-21 14 0 21-28 30-124 5-57 4-80-6-87-8-8-11-38-10-101 2-49 0-91-4-94-4-2-6-12-4-22 1-9-1-27-6-39s-5-25 0-27c4-3 7-15 6-28s1-28 5-33c10-12 31-125 26-134-7-11 15-115 27-130 7-8 13-53 14-100s8-97 15-110c10-19 10-25 1-28-10-4-10-9-1-26 6-12 11-36 9-53-1-18 3-35 9-39s8-15 5-25-1-21 5-25 8-15 5-25 0-24 7-31c7-8 14-28 16-44 3-34 33-137 42-145 6-5 30-58 30-65 0-2-6-2-14 1-20 8-28-12-11-26 8-7 15-16 15-21 0-4 5-20 12-36 6-15 10-32 9-37-1-4 5-13 14-20 10-7 22-44 31-96 8-47 17-94 21-105 12-37 17-70 28-189 3-32 10-66 15-76s6-30 1-47-5-37 0-46c6-9 5-18 0-22-6-3-7-15-2-28 4-12 6-27 4-34-2-6 1-14 6-18 16-9 13-25-2-19-11 4-13-6-10-43 2-26 4-85 6-130 1-46 5-83 8-83 4 0 7-21 7-46 1-25 6-51 11-58 5-6 6-29 1-54-4-23-3-45 1-48 5-3 7-25 5-49s-1-47 3-50c7-7 13-119 12-215 0-36 2-72 5-80 4-8 8-33 10-55 3-21 9-56 14-76l10-37 178-5c228-8 290-13 338-29l39-13-4-65c-2-36-4-79-5-95l-1-30h135c123 0 137 2 152 20 10 11 17 28 18 37 0 10 5 18 10 18 6 0 8 10 4 23-3 15 3 38 15 61 12 21 19 42 15 47-3 6 1 18 9 27 16 18 61 228 52 242-6 10 22 159 35 181 5 9 14 45 20 80s14 71 17 79 7 19 8 25c3 24 18 71 26 80 4 6 10 28 12 50s8 48 12 57 4 22 1 27c-4 6-3 18 2 28 27 52 34 72 27 82-4 7-1 19 6 27 6 8 9 17 6 21-4 3-1 13 5 21 7 8 14 33 15 55 2 22 8 46 13 53 8 8 8 14 1 19-7 4-5 15 5 31 9 13 13 24 9 24s-2 6 4 14c12 14 17 40 25 114 2 18 6 35 10 39 3 3 6 16 6 28 0 11 4 25 10 31 5 5 10 43 12 84 1 41 6 81 11 88 6 7 7 15 4 19-4 3-3 11 2 17 6 7 12 24 15 39 2 15 8 31 11 37 8 14 18 67 18 102 0 16 4 28 8 28 5 0 9 15 9 34s5 38 10 41c6 3 10 16 10 28s6 34 14 49c10 18 11 29 3 37-7 7-7 14 0 23 6 7 13 29 17 48 16 84 19 96 28 107 7 9 7 18-1 27-8 10-9 16-1 21 5 3 10 21 10 40s5 37 10 40c6 3 10 20 10 36 0 17 5 40 11 51 8 15 8 22-1 28s-9 9-1 11c8 3 13 38 15 99 4 107 12 161 31 205 7 16 11 52 10 80-2 27 2 56 7 62 6 7 7 20 4 29-4 9-1 23 5 30 11 14 17 73 18 194 1 91 1 103 2 120 0 28-8 81-14 87-4 3-1 15 5 27 7 11 13 25 13 31 1 5 5 19 10 29 6 13 5 21-3 24-18 6-14 22 4 22 16 0 16 32 0 115-3 11-5 24-5 28-1 5-5 5-11 2-5-3-10 1-10 9s5 18 10 21c6 3 10 19 10 34s5 32 11 38c7 7-8 45-51 127l-61 117 22 44c13 25 27 45 33 45 6 1-2 11-17 24-26 21-27 23-10 38 10 8 59 28 108 44 85 27 99 29 265 28 201 0 344-21 462-66 29-11 42-35 33-60-6-16 20-28 64-28 19 0 23-4 19-24-4-19 6-36 44-76 26-28 48-57 48-64s-11-23-25-36-24-29-21-36c2-6 0-16-6-22s-7-16-2-24c5-7 9-18 9-23 1-24 18-81 27-92 6-7 5-19-2-33-6-11-9-24-6-28 3-5-11-23-30-42-23-21-31-35-24-40 6-4 12-20 14-36s5-29 6-29c8 0 6-96-2-101-5-3-5-11 2-19 7-9 6-16-4-24-8-6-12-21-9-31 3-13-1-22-11-26-13-5-14-9-5-20 6-8 8-22 4-31-4-10-8-29-8-43-1-27 22-36 95-39 20 0 40-6 44-12 7-12-2-11-120 7-33 6-38 4-33-9 3-9 0-20-6-25-7-6-11-30-11-54 1-23-3-48-8-54-5-7-13-57-17-112-5-55-13-108-18-118-5-11-10-40-11-67-1-26-6-56-11-66-6-10-7-21-4-25 10-9 12-96 3-96-5 0-9-19-10-43-1-23-2-56-4-72-1-17 2-38 7-48 6-13 4-24-8-37-9-10-14-24-10-30 8-13 7-196 0-369-3-57-1-109 4-115s6-30 1-55c-5-29-4-51 3-62 8-13 7-21-6-34-9-9-17-26-18-38-1-22-2-28-14-97-4-19-9-73-11-119s-8-89-13-95-10-30-9-52c0-22-4-49-10-60-11-20-23-65-27-99-5-57-18-115-25-115s-29-115-35-190c-5-52-17-94-29-103-8-5-7-10 3-16 11-7 12-13 4-23-9-11-29-112-32-158 0-8-3-42-5-75-3-33-7-87-10-120-2-33-5-60-6-60s-3-16-6-35c-2-19-9-47-15-62s-8-31-5-37c4-6 2-18-3-28s-14-38-20-63c-11-51-5-60 46-60 17 0 35-4 38-10s14-10 23-10c9-1 40-22 69-48l52-47-16-40c-27-72-43-158-50-270-4-87-12-127-35-190-17-44-39-105-50-135-26-73-58-241-58-310 0-85-18-175-52-263-28-74-62-194-51-183s953 2018 959 2044c4 15 37 90 74 167s147 311 245 520 187 395 198 413c18 31 274 258 282 251 2-3-10-104-26-226-33-254-17-207-234-673-75-162-171-369-212-460-42-91-84-174-93-185-22-25-1360-2896-1360-2917 0-9-16-48-35-87s-35-72-35-75c0-2 11-7 25-10 22-6 25-11 25-55 0-31-5-53-15-61-14-12-13-15 5-32 11-10 20-27 20-37 0-25 73-67 128-74 51-6 82-31 82-65s-38-98-65-110c-19-9-27-5-56 24-19 19-46 41-61 50-27 14-28 14-28-11 0-21-9-30-47-47-27-12-68-26-93-32-41-10-48-17-73-66-25-52-47-136-62-240l-6-45 55-29c33-17 56-35 56-45 0-35-54-191-66-191-25 0-25-21 1-51 35-42 57-87 64-128l6-34 85-3c47-2 106-6 133-9 26-2 47 0 47 5 0 6 9 10 20 10s20-5 20-12c0-17 209-2 297 21 40 10 74 16 77 14 3-3 19 0 35 7 17 7 74 12 130 12l100 1 103-52c97-49 106-57 148-119 57-85 78-127 86-175 4-20 10-37 14-37 14 0 22-33 26-104 2-37-1-77-6-87-8-14-6-27 4-47 18-34 11-72-13-72-9 0-36-20-60-45-39-40-43-49-38-80 5-32 4-35-18-35-24 0-40-20-66-83-6-15-17-27-25-27s-14-6-14-14-6-16-12-18c-10-4-9-29 6-115l18-111-31-46c-21-30-36-43-46-40-11 4-15-1-15-17 0-12-12-43-27-68-22-39-208-318-277-416-12-17-27-39-33-50-7-11-27-44-45-73-29-48-43-59-120-98-48-24-94-44-103-44-8 0-15-4-15-8 0-5-11-14-25-20s-25-17-25-24-8-18-19-25c-10-6-32-51-51-105-43-127-78-173-174-227-76-43-80-44-199-52-136-9-214-29-327-83-41-20-82-36-92-36-24 0-23-5 12-49 29-36 30-40 40-201 7-119 15-181 29-220 29-81 23-211-15-328-8-24-12-48-8-53 3-6 1-16-6-23-11-14-32-118-34-168-1-14-4-30-8-34-5-4-8-26-8-49 0-108-55-222-144-295-102-85-234-128-404-134-91-3-120 0-190 20zM3199 4302c-11 42-22 128-26 203-12 240-7 269 56 295 35 14 35 18 20 109-13 73-33 121-52 121-16 0-61 205-61 280-1 30-5 58-11 62s-5 19 3 41c7 18 12 55 12 82 0 61-31 225-43 225-4 0-23-11-40-24-18-14-86-56-151-95-81-48-112-71-95-71 13 1 45-5 72-12 44-12 47-15 47-45 0-17 5-35 10-38 14-9 2-75-18-97-11-13-19-15-27-8-9 7-14 6-18-4-3-8-16-12-34-10-15 2-22 1-15-2 21-10 13-24-13-24-18 0-23-4-19-15 4-9 1-15-8-15-7 0-23-21-36-48-21-44-21-50-7-95 8-26 46-119 86-207l72-160 68-31c67-31 70-34 103-103 54-110 75-170 81-233 3-35 13-69 25-85 11-15 20-36 20-48 0-11 4-20 9-20s0 33-10 72zm-437 6916c-7 2-12 12-12 23 0 10-6 19-12 19-9 0-8 4 2 10 13 8 13 13 2 30-7 11-10 25-6 31 3 5 7 34 8 64 2 42-1 55-11 55-8 0-11 5-8 11 4 6 13 8 21 5 10-4 14 0 12 12s3 16 19 14c12-2 24 2 28 8s-14 10-52 10h-58l29 23 29 24-29 6c-35 7-96 63-115 105-8 20-18 28-28 24s-13-1-8 12c9 22-44 77-91 96-18 7-40 26-48 41-8 16-22 33-32 38-9 5-24 26-31 48-14 39-27 53-48 53-8 0-2-18 16-48 15-26 58-102 95-170 37-67 71-122 76-122s8-8 8-18c-1-9 52-118 118-240 111-209 119-222 128-196 6 20 6 29-2 32z"/><path d="M4000 1955c-10 12-10 15 4 15 9 0 16-7 16-15s-2-15-4-15-9 7-16 15zM4671 12026c0 11 3 14 6 6 3-7 2-16-1-19-3-4-6 2-5 13z"/></svg>