# vertices
v -64 -16 -64
v -64 -48 -64
v -64 -48 64
v -64 -16 64
v 64 -48 64
v 64 -16 64
v 64 -48 -64
v 64 -16 -64
v -64 32 -992
v -64 16 -992
v -64 16 -64
v -64 32 -64
v 960 16 -64
v 960 32 -64
v 960 16 -992
v 960 32 -992
v -256 128 -112
v -256 112 -112
v -256 112 -32
v -256 128 -32
v -160 112 -32
v -160 128 -32
v -160 112 -112
v -160 128 -112
v -256 144 -240
v -256 128 -240
v -256 144 -112
v 48 128 -112
v 48 144 -112
v 48 128 -240
v 48 144 -240
v 64 -0 -112
v 64 -16 -112
v 64 -16 32
v 64 -0 32
v 256 -16 32
v 256 -0 32
v 256 -16 -112
v 256 -0 -112
v -32 48 -224
v 112 32 -208
v 112 32 -112
v -32 48 -128
v 288 32 -112
v 144 48 -128
v 288 32 -208
v 144 48 -224

# texture coordinates
vt 64 16
vt 64 48
vt -64 48
vt -64 16
vt 64 -64
vt 64 64
vt -64 64
vt -64 -64
vt 992 -32
vt 992 -16
vt 64 -16
vt 64 -32
vt 960 -16
vt 960 -32
vt -64 -32
vt -64 -16
vt 960 -992
vt 960 -64
vt -64 -992
vt 112 -128
vt 112 -112
vt 32 -112
vt 32 -128
vt -160 -112
vt -160 -128
vt -256 -128
vt -256 -112
vt -160 -32
vt -256 -32
vt 240 -144
vt 240 -128
vt 112 -144
vt 48 -128
vt 48 -144
vt -256 -144
vt 48 -240
vt 48 -112
vt -256 -240
vt 112 0
vt 112 16
vt -32 16
vt -32 0
vt 256 16
vt 256 0
vt 64 0
vt 256 -112
vt 256 32
vt 64 32
vt 64 -112
vt 224 -0.00093595334328711033
vt 208 0.003275836817920208
vt 112 0.003275836817920208
vt 128 -0.00093595334328711033
vt 288 -0.00039256582385860384
vt 144 -0.00044864666415378451
vt -32 -0.00044864666415378451
vt 112 -0.00039256582385860384
vt 288 -208
vt 288 -112
vt 112 -208
vt 144 -128
vt 144 -224
vt -32 -224
vt -32 -128
vt 144 -1.0000206232070923
vt 288 -0.99996453523635864
vt 112 -0.99996453523635864
vt -32 -1.0000206232070923
vt 224 -0.0028929258696734905
vt 128 -0.0028929258696734905
vt 112 0.0013188640587031841
vt 208 0.0013188640587031841

# face normals
vn -1 0 -0
vn 0 0 1
vn 0 -1 -0
vn 0 1 -0
vn 0 0 -1
vn 1 0 -0
vn -0.11043152607484653 -0.99388373467361879 -0
vn 0 0.70710678118654746 0.70710678118654746
vn 0 -0.70710678118654746 -0.70710678118654746
vn 0.11043152607484653 0.99388373467361879 0

# objects
o entity0_brush0
f 1/1/1 2/2/1 3/3/1 4/4/1
f 5/2/2 6/1/2 4/4/2 3/3/2
f 7/5/3 5/6/3 3/7/3 2/8/3
f 6/6/4 8/5/4 1/8/4 4/7/4
f 8/1/5 7/2/5 2/3/5 1/4/5
f 8/1/6 6/4/6 5/3/6 7/2/6

o entity0_brush1
f 9/9/1 10/10/1 11/11/1 12/12/1
f 13/13/2 14/14/2 12/15/2 11/16/2
f 15/17/3 13/18/3 11/8/3 10/19/3
f 14/18/4 16/17/4 9/19/4 12/8/4
f 16/14/5 15/13/5 10/16/5 9/15/5
f 16/9/6 14/12/6 13/11/6 15/10/6

o entity0_brush2
f 17/20/1 18/21/1 19/22/1 20/23/1
f 21/24/2 22/25/2 20/26/2 19/27/2
f 23/24/3 21/28/3 19/29/3 18/27/3
f 22/28/4 24/24/4 17/27/4 20/29/4
f 24/25/5 23/24/5 18/27/5 17/26/5
f 24/20/6 22/23/6 21/22/6 23/21/6

o entity0_brush3
f 25/30/1 26/31/1 17/20/1 27/32/1
f 28/33/2 29/34/2 27/35/2 17/26/2
f 30/36/3 28/37/3 17/27/3 26/38/3
f 29/37/4 31/36/4 25/38/4 27/27/4
f 31/34/5 30/33/5 26/26/5 25/35/5
f 31/30/6 29/32/6 28/20/6 30/31/6

o entity0_brush4
f 32/39/1 33/40/1 34/41/1 35/42/1
f 36/43/2 37/44/2 35/45/2 34/1/2
f 38/46/3 36/47/3 34/48/3 33/49/3
f 37/47/4 39/46/4 32/49/4 35/48/4
f 39/44/5 38/43/5 33/1/5 32/45/5
f 39/39/6 37/42/6 36/41/6 38/40/6

o entity0_brush5
f 40/50/7 41/51/7 42/52/7 43/53/7
f 44/54/8 45/55/8 43/56/8 42/57/8
f 46/58/3 44/59/3 42/21/3 41/60/3
f 45/61/4 47/62/4 40/63/4 43/64/4
f 47/65/9 46/66/9 41/67/9 40/68/9
f 47/69/10 45/70/10 44/71/10 46/72/10

